[center][img]http://img87.imageshack.us/img87/4151/5a0053df69dbe6d5eb4f88d.jpg[/img][/center]

[center][img]http://leetleech.org/images/48874973695367351744.png[/img][/center]

[center]Format                           : AVI
Format/Info                      : Audio Video Interleave
File size                        : 1.58 GiB
Duration                         : 1h 15mn
Overall bit rate                 : 3 005 Kbps
Writing application              : AVI-Mux GUI 1.17.8.3, Feb 16 201019:42:50
Writing library                  : VirtualDub build 32839/release

Video
ID                               : 0
Format                           : MPEG-4 Visual
Format profile                   : Advanced Simple@L5
Format settings, BVOP            : Yes
Format settings, QPel            : No
Format settings, GMC             : No warppoints
Format settings, Matrix          : Custom
Codec ID                         : XVID
Codec ID/Hint                    : XviD
Duration                         : 1h 15mn
Bit rate                         : 2 547 Kbps
Width                            : 720 pixels
Height                           : 400 pixels
Display aspect ratio             : 16:9
Frame rate                       : 25.000 fps
Color space                      : YUV
Chroma subsampling               : 4:2:0
Bit depth                        : 8 bits
Scan type                        : Progressive
Bits/(Pixel*Frame)               : 0.354
Stream size                      : 1.34 GiB (85%)
Writing library                  : XviD 1.2.1 (UTC 2008-12-04)

Audio
ID                               : 1
Format                           : AC-3
Format/Info                      : Audio Coding 3
Mode extension                   : CM (complete main)
Codec ID                         : 2000
Duration                         : 1h 15mn
Bit rate mode                    : Constant
Bit rate                         : 448 Kbps
Channel(s)                       : 6 channels
Channel positions                : Front: L C R, Side: L R, LFE
Sampling rate                    : 48.0 KHz
Bit depth                        : 16 bits
Stream size                      : 242 MiB (15%)
Alignment                        : Split accross interleaves
Interleave, duration             : 40 ms (1.00 video frame)
Interleave, preload duration     : 500 ms

[/center]


[center][url]http://www.imdb.com/title/tt1486670/[/url][/center]



[center]Users: 5.2/10 (183 votes) 13 reviews | Critics: 27 reviews

A group of teachers must defend themselves from a gang of murderous kids when their school comes under siege after hours.
Director:
Johannes Roberts
Writer:
Johannes Roberts
Stars:
David Schofield, Eliza Bennett and Ruth Gemmell
[/center]


[center][img]http://leetleech.org/images/95521316153253938506.png[/img][/center]




[center][img]http://img195.imageshack.us/img195/8102/vlcsnap2011011405h32m39.png[/img][/center]

[center][img]http://img689.imageshack.us/img689/4431/vlcsnap2011011405h31m54.png[/img][/center]

[center][img]http://img830.imageshack.us/img830/6681/vlcsnap2011011405h30m13.png[/img][/center]



[center]Video Source.......: 720p.BluRay.x264-AVCHD
Audio Source.......: 720p.BluRay.x264-AVCHD[/center]


[center]Greetz to Imagine ,Flawl3ss ,Santi ,Vision ,Kingdom,BDK,DiGiTALiNK,LEGION,Classified,THC,WBZ,Rx ,Feel Free and to all who share[/center]


[center][img]http://signatures.mylivesignature.com/54488/364/63C91F8D3F952BFA8B83650965539EC2.png[/img][/center]